<?xml version="1.0" encoding="UTF-8"?>
<svg xmlns="http://www.w3.org/2000/svg" viewBox="0 0 1242.267 294.185">
    <g id="LOGO">
      <g>
        <g>
          <path d="M125.828,99.2H99.587v-26.6H125.07c2.113,0,5.661-.31,5.661-2.388,0-2.528-5.1-6.155-10.037-9.664C111,53.653,98.95,45.076,98.95,30.4c0-17.986,10.994-28.723,29.409-28.723h25.61V28.987H129.12c-2.5,0-2.5.845-2.5,1.206,0,1.06,3.471,3.372,6.259,5.229.985.657,2.022,1.349,3.069,2.078,10.024,6.976,23.717,16.507,23.717,31.4C159.668,76.394,159.668,99.2,125.828,99.2Z" fill="#000"></path>
          <path d="M449.909,98.6H427.884l3.77-15.043h17.8c2.134,0,2.795-.446,2.856-.565,0-.971-3.433-3.086-5.707-4.486-5.927-3.655-13.3-8.2-13.3-16.184,0-9.565,6.941-15.509,18.115-15.509h20.7L466.9,62.22H451.878a3.785,3.785,0,0,0-.773.065,25.11,25.11,0,0,0,3.236,2.067c.594.341,1.219.7,1.851,1.083,6.113,3.683,14.484,8.728,14.484,16.831C470.676,93.259,463.884,98.6,449.909,98.6Z" fill="#000"></path>
          <path d="M374.22,100.578A50.289,50.289,0,1,1,374.22,0a49.765,49.765,0,0,1,22.3,5.216l.9.44-.544.839a4.8,4.8,0,0,0-.5,4.283l.232.638-.555.389a77.007,77.007,0,0,0-7.541,6,45.664,45.664,0,0,0-7.227,8.6l-.339.524-.609-.142a42.239,42.239,0,0,0-13.154-1.224c-3.936.242-6.042.547-8.128,1.716-2.582,1.453-6.007,4.741-6.726,6.971-.758,2.323-1.431,5.5-2.258,13.451a154.373,154.373,0,0,0-.926,15.876,11.621,11.621,0,0,0,1.093,4.942,15,15,0,0,0,5.845,4.942c2.094.957,9.63,1.709,14.038,1.865,4.159.153,10.66-.187,15.324-1.6,5.674-1.713,8.2-3.531,9.02-4.235a19.325,19.325,0,0,0,5.171-7.459,34.837,34.837,0,0,0,1.886-10.195,30.063,30.063,0,0,0-1.862-10.175,24.346,24.346,0,0,0-5.875-8.524,21.161,21.161,0,0,0-8.89-5.1l-1.121-.361.657-.981a46.524,46.524,0,0,1,5.413-6.637l.392-.368a76.448,76.448,0,0,1,7.733-6.114l.423-.295.467.222a4.885,4.885,0,0,0,6.119-1.737l.544-.832.767.634a50.278,50.278,0,0,1-32.073,89.006Z" fill="#000"></path>
          <polygon points="239.969 1.869 163.111 1.869 163.111 29.062 187.306 29.062 187.306 99.38 215.523 99.38 215.523 29.062 239.969 29.062 239.969 1.869" fill="#000"></polygon>
          <path d="M439.66,42.252H430l.1-1.4-.026-.2.031-.19,1.468-19.866H446.9Z" fill="#000"></path>
          <path d="M76.41,1.678C55.369,1.678,35.8,12.153,21.3,31.171,7.564,49.19,0,72.95,0,98.072V99.38H28.009V98.072a93.024,93.024,0,0,1,.979-13.455H54.806v-26.3H37.4c6.232-11.807,15.009-20.473,25-24.69V99.38H90.415V1.678Z" fill="#000"></path>
          <path d="M304.885,61.021c8.744-5.665,13.733-15.5,13.733-27.18,0-20.656-11.97-32.033-33.706-32.033H249.14V99.322h25.587V28.983l7.218,0c2.681,0,7.179.893,7.179,6.878,0,6.032-4.426,6.935-7.065,6.935h-1.691V73.6l10.279,25.725h33.277Z" fill="#000"></path>
        </g>
        <g>
          <path d="M781.865,133.136a80.525,80.525,0,1,1-80.524,80.524A80.615,80.615,0,0,1,781.865,133.136Zm0,117.259A36.735,36.735,0,1,0,745.13,213.66,36.775,36.775,0,0,0,781.865,250.4Z" fill="#000"></path>
          <path d="M953.094,133.136a80.525,80.525,0,1,1-80.525,80.524A80.615,80.615,0,0,1,953.094,133.136Zm0,117.259a36.735,36.735,0,1,0-36.736-36.735A36.776,36.776,0,0,0,953.094,250.4Z" fill="#000"></path>
          <path d="M199.944,137.346v103.83h46.642v48.373h-101.5v-152.2Z" fill="#000"></path>
          <path d="M555.94,137.346l-52,86.466-.051.084v65.653H450.247V223.894l-.052-.085-53-86.463h62l16.946,39.736.091.214h2.106l.08-.241c.383-1.146.754-2.292,1.125-3.436,1.177-3.629,2.393-7.382,3.937-10.934l10.857-25.339Z" fill="#000"></path>
          <path d="M70.016,137.346c38.637,0,61.7,20.868,61.7,55.822,0,31.054-19.214,50.345-50.144,50.345H63.516v-38c6.872-.549,15.775-2.691,15.775-14.17,0-11.927-10.754-12.926-20.835-12.926H52.831V289.549H0v-152.2Z" fill="#000"></path>
          <path d="M373.325,137.346l54.3,152.2H369.588l-5-18.8-.07-.262h-30.9l8.411-35.595h12.929l-.1-.43c-.091-.4-9.137-40.214-10.137-46.619l-.046-.3h-2.607l-.064.269-20.08,82.944-4.4,18.793H259.491l52.888-152.2Z" fill="#000"></path>
          <path d="M665.955,228.863c19.754-7.186,26.875-17.522,26.875-38.524,0-33.543-23.081-52.78-63.324-52.78H565.8v152.2h50.575V178.631h4.615c8.8,0,18.2,1.046,18.2,13.532,0,9.95-6.932,12.1-12.31,12.79V258.66l15.422,31.1H705.5Z" fill="#000"></path>
          <polygon points="1217.641 137.346 1161.024 137.346 1139.932 217.654 1138.175 217.654 1117.083 137.346 1060.466 137.346 1035.84 289.549 1088.849 289.549 1096.749 205.794 1099.233 205.794 1122.483 289.549 1155.624 289.549 1178.874 205.794 1181.358 205.794 1189.258 289.549 1242.267 289.549 1217.641 137.346" fill="#000"></polygon>
        </g>
      </g>
    </g>
</svg>
